<?xml version="1.0" standalone="no"?>
<!DOCTYPE svg PUBLIC "-//W3C//DTD SVG 20010904//EN"
 "http://www.w3.org/TR/2001/REC-SVG-20010904/DTD/svg10.dtd">
<svg version="1.0" xmlns="http://www.w3.org/2000/svg"
 width="128.000000pt" height="128.000000pt" viewBox="0 0 128.000000 128.000000"
 preserveAspectRatio="xMidYMid meet">
<metadata>
Created by potrace 1.14, written by Peter Selinger 2001-2017
</metadata>
<g transform="translate(0.000000,128.000000) scale(0.100000,-0.100000)"
fill="#000000" stroke="none">
<path d="M171 1004 c49 -51 183 -150 243 -178 28 -14 71 -27 96 -30 25 -3 113
-15 195 -26 83 -10 177 -22 210 -25 33 -4 63 -9 67 -11 15 -9 8 21 -12 53 -25
42 -42 50 -194 90 -131 34 -305 80 -511 134 -60 16 -114 29 -119 29 -6 0 6
-16 25 -36z"/>
<path d="M330 785 c0 -10 166 -128 215 -152 48 -24 57 -25 200 -23 83 1 177 4
210 5 33 2 70 4 82 4 l22 1 -20 35 c-12 19 -25 38 -30 41 -12 7 -103 21 -187
30 -37 3 -69 7 -72 9 -3 2 -33 6 -67 10 -34 3 -70 8 -81 10 -11 2 -64 8 -118
15 -55 6 -111 13 -126 16 -16 2 -28 2 -28 -1z"/>
<path d="M857 584 c-1 -1 -78 -5 -172 -9 -93 -4 -171 -8 -173 -10 -14 -13 186
-95 231 -95 57 0 347 64 347 77 0 6 -7 19 -16 28 -14 13 -35 16 -116 13 -55
-2 -100 -4 -101 -4z"/>
<path d="M1058 513 c-10 -2 -18 -14 -19 -26 0 -12 -2 -75 -5 -140 -5 -113 -4
-117 14 -106 25 16 63 72 89 133 19 47 20 53 6 81 -20 39 -43 65 -57 64 -6 -1
-19 -3 -28 -6z"/>
<path d="M962 492 c-12 -2 -29 -13 -36 -25 -15 -25 -52 -175 -44 -182 3 -3 20
5 39 17 36 25 85 110 92 165 5 33 5 33 -51 25z"/>
<path d="M860 463 c-27 -10 -61 -47 -76 -82 -17 -41 -17 -41 0 -41 32 0 106
84 106 120 0 11 -6 12 -30 3z"/>
</g>
</svg>
